<svg width="24" height="24" viewBox="0 0 24 24" fill="none" xmlns="http://www.w3.org/2000/svg">
<path d="M2 13H22V16.5C22 17.05 21.55 17.5 21 17.5H3C2.45 17.5 2 17.05 2 16.5V13Z" fill="#F8F8F8"/>
<path d="M6 17.5H4V19.5H6V17.5Z" fill="#F8F8F8"/>
<path d="M20 17.5H18V19.5H20V17.5Z" fill="#F8F8F8"/>
<path d="M4.5 4.5H19.5C20.05 4.5 20.5 4.95 20.5 5.5V8.5H3.5V5.5C3.5 4.95 3.95 4.5 4.5 4.5Z" fill="#F8F8F8"/>
<path d="M5 8H3.5V11H5V8Z" fill="#F8F8F8"/>
<path d="M13 8.5H11V11H13V8.5Z" fill="#F8F8F8"/>
<path d="M20.5 8H19V11H20.5V8Z" fill="#F8F8F8"/>
</svg>
