<svg width="24" height="24" viewBox="0 0 24 24" fill="none" xmlns="http://www.w3.org/2000/svg">
<path fill-rule="evenodd" clip-rule="evenodd" d="M6 9C6 5.68629 8.68629 3 12 3C15.3137 3 18 5.68629 18 9V16H20V18H4V16H6V9ZM14.7716 20.1481C14.9224 19.7841 15 19.394 15 19H12H9C9 19.394 9.0776 19.7841 9.22836 20.1481C9.37913 20.512 9.6001 20.8427 9.87868 21.1213C10.1573 21.3999 10.488 21.6209 10.8519 21.7716C11.2159 21.9224 11.606 22 12 22C12.394 22 12.7841 21.9224 13.1481 21.7716C13.512 21.6209 13.8427 21.3999 14.1213 21.1213C14.3999 20.8427 14.6209 20.512 14.7716 20.1481Z" fill="#F8F8F8"/>
</svg>
