<svg width="24" height="24" viewBox="0 0 24 24" fill="none" xmlns="http://www.w3.org/2000/svg">
<path opacity="0.25" d="M10.25 18.5C14.8063 18.5 18.5 14.8063 18.5 10.25C18.5 5.69365 14.8063 2 10.25 2C5.69365 2 2 5.69365 2 10.25C2 14.8063 5.69365 18.5 10.25 18.5Z" fill="#F8F8F8"/>
<path d="M10.25 3.5C13.97 3.5 17 6.53 17 10.25C17 13.97 13.97 17 10.25 17C6.53 17 3.5 13.97 3.5 10.25C3.5 6.53 6.53 3.5 10.25 3.5ZM10.25 2C5.695 2 2 5.695 2 10.25C2 14.805 5.695 18.5 10.25 18.5C14.805 18.5 18.5 14.805 18.5 10.25C18.5 5.695 14.805 2 10.25 2Z" fill="#F8F8F8"/>
<path d="M14.9573 16.0406L20.9323 22.0156L21.9505 20.9974L15.9755 15.0223L14.9573 16.0406Z" fill="#F8F8F8"/>
</svg>
