<svg width="24" height="24" viewBox="0 0 24 24" fill="none" xmlns="http://www.w3.org/2000/svg">
<path d="M11.79 6.54008L3.22 10.5451C2.735 10.7701 2.895 11.5001 3.43 11.5001H20.57C21.105 11.5001 21.265 10.7751 20.78 10.5451L12.21 6.53508C12.075 6.47008 11.92 6.47008 11.785 6.53508L11.79 6.54008Z" fill="#F8F8F8"/>
<path opacity="0.25" d="M5 10.5H19V16.5C19 16.775 18.775 17 18.5 17H5.5C5.225 17 5 16.775 5 16.5V10.5Z" fill="#F8F8F8"/>
<path d="M11.895 15.5002L3.32498 11.4902C2.83998 11.2652 2.99998 10.5352 3.53498 10.5352H20.675C21.21 10.5352 21.37 11.2602 20.885 11.4902L12.315 15.5002C12.18 15.5652 12.025 15.5652 11.89 15.5002H11.895Z" fill="#F8F8F8"/>
<path d="M20.4995 11.7909L19.7924 12.498L20.4995 13.2052L21.2066 12.498L20.4995 11.7909Z" fill="#F8F8F8"/>
</svg>
