<svg width="25" height="24" viewBox="0 0 25 24" fill="none" xmlns="http://www.w3.org/2000/svg">
<g clip-path="url(#clip0_4558_559)">
<path d="M3.02289 5.48047H21.0229C21.299 5.48047 21.5229 5.70433 21.5229 5.98047V18.9805C21.5229 19.2566 21.299 19.4805 21.0229 19.4805H3.02289C2.74675 19.4805 2.52289 19.2566 2.52289 18.9805V5.98047C2.52289 5.70433 2.74675 5.48047 3.02289 5.48047Z" stroke="#F8F8F8"/>
<path d="M15.3379 12.9046L10.8329 15.7046C10.4979 15.9096 10.0679 15.6696 10.0679 15.2796V9.67961C10.0679 9.28961 10.4979 9.04961 10.8329 9.25461L15.3379 12.0546C15.6529 12.2496 15.6529 12.7096 15.3379 12.9046Z" fill="#F8F8F8"/>
</g>
<defs>
<clipPath id="clip0_4558_559">
<rect width="24" height="24" fill="white" transform="translate(0.0228882)"/>
</clipPath>
</defs>
</svg>
