<svg width="24" height="24" viewBox="0 0 24 24" fill="none" xmlns="http://www.w3.org/2000/svg">
<path d="M20.3751 12.54V12.15L21.1801 11.92C21.6251 11.795 21.9901 11.685 21.9951 11.68C22.0201 11.655 21.8951 10.62 21.8651 10.59C21.8451 10.575 21.4801 10.525 21.0601 10.48L20.2951 10.41L20.2301 10.2C20.1901 10.085 20.1251 9.845 20.0851 9.67L20.0101 9.345L20.6851 8.895C21.0601 8.65 21.3651 8.435 21.3651 8.42C21.3651 8.41 21.2851 8.215 21.1801 8.005C21.0801 7.785 20.9851 7.555 20.9601 7.495C20.9251 7.385 20.9101 7.39 20.1701 7.565C19.7601 7.67 19.3901 7.75 19.3601 7.75C19.3051 7.75 18.7351 6.92 18.7351 6.84C18.7351 6.83 18.9451 6.54 19.2001 6.195C19.4601 5.855 19.6651 5.555 19.6651 5.525C19.6651 5.495 19.4951 5.305 19.2851 5.1L18.9051 4.72L18.6901 4.85C18.5751 4.915 18.3001 5.095 18.0801 5.24C17.8651 5.39 17.6451 5.52 17.6101 5.535C17.5401 5.56 16.8151 5.04 16.7251 4.9C16.7101 4.875 16.7901 4.54 16.9151 4.155C17.0351 3.77 17.1351 3.445 17.1351 3.415C17.1351 3.375 16.2051 2.87 16.1301 2.87C16.1201 2.87 15.9001 3.145 15.6501 3.475C15.1301 4.16 15.2151 4.135 14.4951 3.855L14.0751 3.69L14.0601 2.91L14.0451 2.13L13.4951 2.06C13.1951 2.02 12.9401 2.005 12.9301 2.035C12.9201 2.055 12.8101 2.375 12.6851 2.735L12.4551 3.395L11.9001 3.41L11.3401 3.425L11.0751 2.705C10.9251 2.315 10.7851 2 10.7501 2C10.7251 2.005 10.4901 2.05 10.2401 2.105C9.99512 2.16 9.75012 2.22 9.71012 2.235C9.65012 2.255 9.63012 2.42 9.61512 3.015L9.60012 3.76L9.16512 3.92C8.92512 4.01 8.69512 4.08 8.65512 4.08C8.59512 4.08 8.30512 3.74 7.81012 3.095L7.67512 2.91L7.17012 3.2C6.89012 3.36 6.66512 3.51 6.66512 3.54C6.66512 3.57 6.76512 3.905 6.89012 4.285C7.01512 4.675 7.09512 4.985 7.06512 5.01C7.04012 5.025 6.84512 5.165 6.64512 5.315C6.43512 5.465 6.25012 5.585 6.21512 5.575C6.19012 5.57 5.91512 5.405 5.60012 5.21C5.29012 5.015 5.01512 4.855 4.98512 4.855C4.94012 4.855 4.54012 5.29 4.29512 5.595C4.20012 5.71 4.21512 5.73 4.66012 6.305C4.91012 6.635 5.10512 6.925 5.09012 6.955C5.07012 6.99 4.93012 7.195 4.79012 7.415C4.59512 7.705 4.49512 7.81 4.43012 7.79C3.90512 7.65 3.08012 7.485 3.05012 7.52C2.99512 7.585 2.59512 8.58 2.61512 8.595C2.62512 8.605 2.87512 8.765 3.16012 8.95C3.44512 9.135 3.72512 9.325 3.77512 9.36C3.87512 9.435 3.88012 9.4 3.65012 10.28L3.60012 10.47L2.86512 10.54L2.13012 10.61L2.09512 10.785C2.08512 10.88 2.05012 11.14 2.03012 11.37L1.99512 11.79L2.28512 11.87C2.45012 11.92 2.78512 12.005 3.03012 12.08C3.54012 12.215 3.53012 12.195 3.54512 12.84L3.55512 13.25L2.87012 13.58L2.18012 13.91L2.32512 14.48L2.47012 15.045L3.13012 15.005C3.49512 14.985 3.85012 14.96 3.92012 14.955C4.02512 14.95 4.08012 15.02 4.26012 15.415L4.47012 15.88L3.89512 16.43L3.32012 16.98L3.64012 17.445C3.81012 17.705 3.96512 17.92 3.97512 17.935C3.98012 17.945 4.30512 17.83 4.69012 17.675C5.08012 17.515 5.42012 17.39 5.44512 17.39C5.48012 17.39 5.64012 17.55 5.82012 17.745L6.14012 18.1L5.78012 18.8C5.58512 19.19 5.42512 19.52 5.42512 19.535C5.42512 19.575 6.28512 20.235 6.33512 20.235C6.35512 20.235 6.55512 20.07 6.78512 19.87C7.01012 19.66 7.28012 19.425 7.37512 19.345L7.56012 19.19L7.98012 19.42C8.21512 19.545 8.41512 19.655 8.42012 19.655C8.42512 19.66 8.38012 20.03 8.32012 20.475C8.26012 20.925 8.22012 21.295 8.22512 21.305C8.23512 21.31 8.47512 21.395 8.76012 21.485C9.37512 21.69 9.27012 21.755 9.76012 20.855C10.1351 20.165 10.0701 20.205 10.7101 20.31L11.0951 20.375L11.2601 21.18L11.4251 21.985H12.6001L12.6401 21.775C12.6551 21.665 12.7301 21.305 12.7951 20.97L12.9101 20.365L13.2951 20.3C13.9401 20.19 13.8701 20.145 14.3101 20.94C14.5251 21.335 14.7101 21.65 14.7251 21.65C14.7601 21.65 15.7551 21.31 15.7851 21.29C15.7951 21.28 15.7451 20.9 15.6801 20.445C15.6151 19.99 15.5651 19.61 15.5751 19.6C15.5851 19.595 15.7901 19.48 16.0251 19.355L16.4551 19.125L16.7401 19.37C16.9001 19.5 17.1851 19.76 17.3801 19.94L17.7301 20.265L18.1801 19.905L18.6351 19.55L18.2501 18.825C18.0401 18.43 17.8701 18.085 17.8701 18.06C17.8701 18.025 18.0251 17.84 18.2151 17.64L18.5551 17.265L19.2151 17.56C20.1801 17.995 20.0601 18.01 20.4151 17.45L20.7251 16.97L20.1151 16.395L19.5101 15.82L19.7151 15.34L19.9251 14.85L20.6801 14.89C21.0901 14.91 21.4701 14.935 21.5201 14.94C21.6101 14.945 21.6251 14.895 21.8451 13.955C21.8651 13.85 21.7851 13.795 21.1001 13.49C20.4201 13.185 20.3351 13.135 20.3601 13.03C20.3751 12.97 20.3951 12.745 20.3951 12.53L20.3751 12.54ZM12.0001 15.81C9.89512 15.81 8.19012 14.105 8.19012 12C8.19012 9.895 9.89512 8.19 12.0001 8.19C14.1051 8.19 15.8101 9.895 15.8101 12C15.8101 14.105 14.1051 15.81 12.0001 15.81Z" fill="#F8F8F8"/>
</svg>
